<svg width="1600" height="900" viewBox="0 0 1600 900" fill="none" xmlns="http://www.w3.org/2000/svg">
  <defs>
    <linearGradient id="bg" x1="0" y1="0" x2="1600" y2="900" gradientUnits="userSpaceOnUse">
      <stop stop-color="#0F172A"/>
      <stop offset="1" stop-color="#020617"/>
    </linearGradient>
    <radialGradient id="glow1" cx="0" cy="0" r="1" gradientUnits="userSpaceOnUse" gradientTransform="translate(400 300) rotate(0) scale(700 500)">
      <stop stop-color="#38BDF8" stop-opacity="0.22"/>
      <stop offset="1" stop-color="#38BDF8" stop-opacity="0"/>
    </radialGradient>
    <radialGradient id="glow2" cx="0" cy="0" r="1" gradientUnits="userSpaceOnUse" gradientTransform="translate(1200 500) rotate(0) scale(800 600)">
      <stop stop-color="#22C55E" stop-opacity="0.18"/>
      <stop offset="1" stop-color="#22C55E" stop-opacity="0"/>
    </radialGradient>
    <linearGradient id="panel" x1="0" y1="0" x2="0" y2="1">
      <stop stop-color="#1E293B"/>
      <stop offset="1" stop-color="#0F172A"/>
    </linearGradient>
    <linearGradient id="accent" x1="0" y1="0" x2="1" y2="1">
      <stop stop-color="#38BDF8"/>
      <stop offset="1" stop-color="#22C55E"/>
    </linearGradient>
  </defs>
  <rect width="1600" height="900" fill="url(#bg)"/>
  <rect width="1600" height="900" fill="url(#glow1)"/>
  <rect width="1600" height="900" fill="url(#glow2)"/>

  <g opacity="0.08">
    <path d="M-40 120 L1640 120" stroke="white" stroke-width="1"/>
    <path d="M-40 220 L1640 220" stroke="white" stroke-width="1"/>
    <path d="M-40 320 L1640 320" stroke="white" stroke-width="1"/>
    <path d="M-40 420 L1640 420" stroke="white" stroke-width="1"/>
    <path d="M-40 520 L1640 520" stroke="white" stroke-width="1"/>
    <path d="M-40 620 L1640 620" stroke="white" stroke-width="1"/>
    <path d="M-40 720 L1640 720" stroke="white" stroke-width="1"/>
  </g>

  <!-- Municipal building -->
  <g transform="translate(120 200)">
    <rect x="0" y="120" width="280" height="320" fill="#1E293B" stroke="white" stroke-opacity="0.15" stroke-width="2"/>
    <rect x="20" y="140" width="60" height="80" rx="4" fill="#38BDF8" fill-opacity="0.15" stroke="#38BDF8" stroke-opacity="0.3" stroke-width="1.5"/>
    <rect x="100" y="140" width="60" height="80" rx="4" fill="#38BDF8" fill-opacity="0.15" stroke="#38BDF8" stroke-opacity="0.3" stroke-width="1.5"/>
    <rect x="180" y="140" width="60" height="80" rx="4" fill="#38BDF8" fill-opacity="0.15" stroke="#38BDF8" stroke-opacity="0.3" stroke-width="1.5"/>
    <rect x="20" y="240" width="60" height="80" rx="4" fill="#38BDF8" fill-opacity="0.1" stroke="#38BDF8" stroke-opacity="0.25" stroke-width="1.5"/>
    <rect x="100" y="240" width="60" height="80" rx="4" fill="#38BDF8" fill-opacity="0.1" stroke="#38BDF8" stroke-opacity="0.25" stroke-width="1.5"/>
    <rect x="180" y="240" width="60" height="80" rx="4" fill="#38BDF8" fill-opacity="0.1" stroke="#38BDF8" stroke-opacity="0.25" stroke-width="1.5"/>
    <rect x="20" y="340" width="60" height="80" rx="4" fill="#38BDF8" fill-opacity="0.08" stroke="#38BDF8" stroke-opacity="0.2" stroke-width="1.5"/>
    <rect x="100" y="340" width="60" height="80" rx="4" fill="#38BDF8" fill-opacity="0.08" stroke="#38BDF8" stroke-opacity="0.2" stroke-width="1.5"/>
    <rect x="180" y="340" width="60" height="80" rx="4" fill="#38BDF8" fill-opacity="0.08" stroke="#38BDF8" stroke-opacity="0.2" stroke-width="1.5"/>
    <path d="M0 120 L140 40 L280 120 Z" fill="#334155" stroke="white" stroke-opacity="0.2" stroke-width="2"/>
    <rect x="115" y="380" width="50" height="60" fill="#0F172A" stroke="white" stroke-opacity="0.15" stroke-width="1.5"/>
    <text x="140" y="28" fill="white" fill-opacity="0.55" font-family="system-ui, sans-serif" font-size="14" font-weight="600" text-anchor="middle">Municipal Authority</text>
  </g>

  <!-- Delivery flow arrows -->
  <g stroke="url(#accent)" stroke-opacity="0.5" stroke-width="3" fill="none" stroke-linecap="round">
    <path d="M420 380 H520"/>
    <path d="M500 360 L520 380 L500 400" fill="url(#accent)" fill-opacity="0.5" stroke="none"/>
    <path d="M1080 380 H1180"/>
    <path d="M1160 360 L1180 380 L1160 400" fill="url(#accent)" fill-opacity="0.5" stroke="none"/>
  </g>

  <!-- B2G delivery dashboard -->
  <g transform="translate(520 160)">
    <rect x="0" y="0" width="560" height="520" rx="24" fill="url(#panel)" stroke="white" stroke-opacity="0.12" stroke-width="2"/>
    <rect x="0" y="0" width="560" height="56" rx="24" fill="#1E293B"/>
    <rect x="0" y="40" width="560" height="16" fill="#1E293B"/>
    <circle cx="28" cy="28" r="7" fill="#EF4444" fill-opacity="0.7"/>
    <circle cx="52" cy="28" r="7" fill="#F59E0B" fill-opacity="0.7"/>
    <circle cx="76" cy="28" r="7" fill="#22C55E" fill-opacity="0.7"/>
    <text x="110" y="34" fill="white" fill-opacity="0.6" font-family="system-ui, sans-serif" font-size="16" font-weight="600">B2G Project Delivery</text>

    <!-- Delivery phases -->
    <g transform="translate(32 80)">
      <text x="0" y="0" fill="white" fill-opacity="0.5" font-family="system-ui, sans-serif" font-size="13" font-weight="600">DELIVERY PHASES</text>

      <g transform="translate(0 24)">
        <circle cx="16" cy="16" r="16" fill="#22C55E" fill-opacity="0.2" stroke="#22C55E" stroke-width="2"/>
        <path d="M10 16 L14 20 L24 10" stroke="#22C55E" stroke-width="2" stroke-linecap="round" stroke-linejoin="round" fill="none"/>
        <text x="44" y="14" fill="white" fill-opacity="0.75" font-family="system-ui, sans-serif" font-size="14" font-weight="600">Feasibility &amp; Due Diligence</text>
        <text x="44" y="32" fill="white" fill-opacity="0.4" font-family="system-ui, sans-serif" font-size="12">Technical assessment complete</text>
        <line x1="16" y1="40" x2="16" y2="56" stroke="#334155" stroke-width="2"/>
      </g>

      <g transform="translate(0 88)">
        <circle cx="16" cy="16" r="16" fill="#22C55E" fill-opacity="0.2" stroke="#22C55E" stroke-width="2"/>
        <path d="M10 16 L14 20 L24 10" stroke="#22C55E" stroke-width="2" stroke-linecap="round" stroke-linejoin="round" fill="none"/>
        <text x="44" y="14" fill="white" fill-opacity="0.75" font-family="system-ui, sans-serif" font-size="14" font-weight="600">Engineering &amp; Procurement</text>
        <text x="44" y="32" fill="white" fill-opacity="0.4" font-family="system-ui, sans-serif" font-size="12">Modular systems configured</text>
        <line x1="16" y1="40" x2="16" y2="56" stroke="#334155" stroke-width="2"/>
      </g>

      <g transform="translate(0 152)">
        <circle cx="16" cy="16" r="16" fill="#38BDF8" fill-opacity="0.2" stroke="#38BDF8" stroke-width="2"/>
        <circle cx="16" cy="16" r="5" fill="#38BDF8"/>
        <text x="44" y="14" fill="white" fill-opacity="0.75" font-family="system-ui, sans-serif" font-size="14" font-weight="600">Commissioning &amp; Handover</text>
        <text x="44" y="32" fill="#38BDF8" fill-opacity="0.8" font-family="system-ui, sans-serif" font-size="12">In progress — 72%</text>
        <line x1="16" y1="40" x2="16" y2="56" stroke="#334155" stroke-width="2"/>
      </g>

      <g transform="translate(0 216)">
        <circle cx="16" cy="16" r="16" fill="#334155" stroke="#475569" stroke-width="2"/>
        <text x="44" y="14" fill="white" fill-opacity="0.45" font-family="system-ui, sans-serif" font-size="14" font-weight="600">Operations &amp; Optimization</text>
        <text x="44" y="32" fill="white" fill-opacity="0.3" font-family="system-ui, sans-serif" font-size="12">Pending handover</text>
      </g>
    </g>

    <!-- Progress bar -->
    <g transform="translate(32 380)">
      <text x="0" y="0" fill="white" fill-opacity="0.5" font-family="system-ui, sans-serif" font-size="13" font-weight="600">OVERALL PROGRESS</text>
      <rect x="0" y="16" width="496" height="14" rx="7" fill="#334155"/>
      <rect x="0" y="16" width="357" height="14" rx="7" fill="url(#accent)" fill-opacity="0.8"/>
      <text x="496" y="50" fill="#38BDF8" font-family="system-ui, sans-serif" font-size="14" font-weight="700" text-anchor="end">72%</text>
    </g>

    <!-- Stakeholder badges -->
    <g transform="translate(32 450)">
      <rect x="0" y="0" width="150" height="44" rx="8" fill="#22C55E" fill-opacity="0.1" stroke="#22C55E" stroke-opacity="0.3" stroke-width="1.5"/>
      <text x="75" y="27" fill="#22C55E" font-family="system-ui, sans-serif" font-size="13" font-weight="600" text-anchor="middle">Public Sector</text>
      <rect x="170" y="0" width="150" height="44" rx="8" fill="#38BDF8" fill-opacity="0.1" stroke="#38BDF8" stroke-opacity="0.3" stroke-width="1.5"/>
      <text x="245" y="27" fill="#38BDF8" font-family="system-ui, sans-serif" font-size="13" font-weight="600" text-anchor="middle">Documentation</text>
      <rect x="340" y="0" width="156" height="44" rx="8" fill="#A855F7" fill-opacity="0.1" stroke="#A855F7" stroke-opacity="0.3" stroke-width="1.5"/>
      <text x="418" y="27" fill="#A855F7" font-family="system-ui, sans-serif" font-size="13" font-weight="600" text-anchor="middle">Verified Delivery</text>
    </g>
  </g>

  <!-- Infrastructure module -->
  <g transform="translate(1180 240)">
    <rect x="0" y="0" width="300" height="280" rx="16" fill="#1E293B" stroke="white" stroke-opacity="0.12" stroke-width="2"/>
    <text x="150" y="32" fill="white" fill-opacity="0.55" font-family="system-ui, sans-serif" font-size="14" font-weight="600" text-anchor="middle">Deployed Module</text>

    <!-- Industrial unit -->
    <rect x="60" y="60" width="180" height="120" rx="8" fill="#0F172A" stroke="#38BDF8" stroke-opacity="0.4" stroke-width="2"/>
    <rect x="80" y="80" width="40" height="30" rx="4" fill="#38BDF8" fill-opacity="0.2"/>
    <rect x="130" y="80" width="40" height="30" rx="4" fill="#22C55E" fill-opacity="0.2"/>
    <rect x="180" y="80" width="40" height="30" rx="4" fill="#38BDF8" fill-opacity="0.15"/>
    <rect x="80" y="120" width="140" height="8" rx="4" fill="#334155"/>
    <rect x="80" y="120" width="100" height="8" rx="4" fill="#22C55E" fill-opacity="0.6"/>
    <circle cx="150" cy="200" r="24" fill="#22C55E" fill-opacity="0.15" stroke="#22C55E" stroke-opacity="0.5" stroke-width="2"/>
    <path d="M140 200 L147 207 L162 192" stroke="#22C55E" stroke-width="3" stroke-linecap="round" stroke-linejoin="round" fill="none"/>
    <text x="150" y="250" fill="#22C55E" font-family="system-ui, sans-serif" font-size="13" font-weight="600" text-anchor="middle">Operational</text>
  </g>

  <!-- Connection lines -->
  <g stroke="#38BDF8" stroke-opacity="0.2" stroke-width="2" fill="none" stroke-dasharray="6 4">
    <path d="M400 380 Q460 380 520 300"/>
    <path d="M1080 380 Q1140 380 1180 360"/>
  </g>
</svg>
