<svg width="1600" height="900" viewBox="0 0 1600 900" fill="none" xmlns="http://www.w3.org/2000/svg">
  <defs>
    <linearGradient id="bg" x1="0" y1="900" x2="1600" y2="0" gradientUnits="userSpaceOnUse">
      <stop stop-color="#020617"/>
      <stop offset="0.5" stop-color="#0F172A"/>
      <stop offset="1" stop-color="#0B1220"/>
    </linearGradient>
    <radialGradient id="g1" cx="0" cy="0" r="1" gradientUnits="userSpaceOnUse" gradientTransform="translate(800 450) scale(900 600)">
      <stop stop-color="#06B6D4" stop-opacity="0.2"/>
      <stop offset="1" stop-color="#06B6D4" stop-opacity="0"/>
    </radialGradient>
  </defs>
  <rect width="1600" height="900" fill="url(#bg)"/>
  <rect width="1600" height="900" fill="url(#g1)"/>
  <g opacity="0.15" stroke="white" stroke-width="2" fill="none">
    <path d="M400 650 L800 200 L1200 650 Z"/>
    <path d="M500 650 L800 320 L1100 650 Z"/>
  </g>
  <rect x="620" y="380" width="360" height="280" rx="16" fill="#1E293B" stroke="white" stroke-opacity="0.15" stroke-width="2"/>
  <rect x="660" y="420" width="120" height="80" rx="8" fill="#38BDF8" fill-opacity="0.15"/>
  <rect x="800" y="420" width="140" height="80" rx="8" fill="#22C55E" fill-opacity="0.15"/>
  <rect x="660" y="520" width="280" height="12" rx="6" fill="#334155"/>
  <rect x="660" y="520" width="200" height="12" rx="6" fill="#38BDF8" fill-opacity="0.5"/>
  <rect x="660" y="550" width="280" height="12" rx="6" fill="#334155"/>
  <rect x="660" y="550" width="160" height="12" rx="6" fill="#22C55E" fill-opacity="0.5"/>
  <rect x="660" y="580" width="280" height="12" rx="6" fill="#334155"/>
  <rect x="660" y="580" width="240" height="12" rx="6" fill="#38BDF8" fill-opacity="0.35"/>
</svg>
